HIERARCHY
ROOT hip
{
	OFFSET 0.000000 0.000000 0.000000 
	CHANNELS 6 Xposition Yposition Zposition Xrotation Zrotation Yrotation
	JOINT abdomen
	{
		OFFSET 0.000000 3.402643 0.000000 
		CHANNELS 3 Xrotation Zrotation Yrotation
		JOINT chest
		{
			OFFSET 0.000000 8.438565 -0.680529 
			CHANNELS 3 Xrotation Zrotation Yrotation
			JOINT neck
			{
				OFFSET 0.000000 10.207942 -0.272212 
				CHANNELS 3 Xrotation Zrotation Yrotation
				JOINT head
				{
					OFFSET 0.000000 3.130431 0.000000 
					CHANNELS 3 Xrotation Zrotation Yrotation
					End Site
					{
						OFFSET 0.000000 3.130435 0.000000 
					}
				}
			}
			JOINT lCollar
			{
				OFFSET 3.470700 6.669187 -0.816635 
				CHANNELS 3 Yrotation Zrotation Xrotation
				JOINT lShldr
				{
					OFFSET 3.198488 0.000000 0.000000 
					CHANNELS 3 Zrotation Yrotation Xrotation
					JOINT lForeArm
					{
						OFFSET 10.139888 0.000000 0.000000 
						CHANNELS 3 Yrotation Zrotation Xrotation
						JOINT lHand
						{
							OFFSET 8.370511 0.000000 0.000000 
							CHANNELS 3 Zrotation Yrotation Xrotation
							End Site
							{
								OFFSET 4.083176 0.000000 0.000000 
							}
						}
					}
				}
			}
			JOINT rCollar
			{
				OFFSET -3.470700 6.669187 -0.816635 
				CHANNELS 3 Yrotation Zrotation Xrotation
				JOINT rShldr
				{
					OFFSET -3.198488 0.000000 0.000000 
					CHANNELS 3 Zrotation Yrotation Xrotation
					JOINT rForeArm
					{
						OFFSET -10.139888 0.000000 0.000000 
						CHANNELS 3 Yrotation Zrotation Xrotation
						JOINT rHand
						{
							OFFSET -8.370511 0.000000 0.000000 
							CHANNELS 3 Zrotation Yrotation Xrotation
							End Site
							{
								OFFSET -4.083176 0.000000 0.000000 
							}
						}
					}
				}
			}
		}
	}
	JOINT lThigh
	{
		OFFSET 5.308129 -1.633274 1.361059 
		CHANNELS 3 Xrotation Zrotation Yrotation
		JOINT lShin
		{
			OFFSET -2.041588 -20.007561 0.000000 
			CHANNELS 3 Xrotation Zrotation Yrotation
			JOINT lFoot
			{
				OFFSET 0.000000 -19.190928 -1.224953 
				CHANNELS 3 Xrotation Yrotation Zrotation
				End Site
				{
					OFFSET 0.000000 -2.449906 4.627600 
				}
			}
		}
	}
	JOINT rThigh
	{
		OFFSET -5.308129 -1.633274 1.361059 
		CHANNELS 3 Xrotation Zrotation Yrotation
		JOINT rShin
		{
			OFFSET 2.041588 -20.007561 0.000000 
			CHANNELS 3 Xrotation Zrotation Yrotation
			JOINT rFoot
			{
				OFFSET 0.000000 -19.190928 -1.224953 
				CHANNELS 3 Xrotation Yrotation Zrotation
				End Site
				{
					OFFSET 0.000000 -2.449906 4.627600 
				}
			}
		}
	}
}
MOTION
Frames: 11
Frame Time: 0.016667
-0.309012 40.501938 -0.620100 29.832642 -6.303556 -2.299211 -0.430827 2.226563 -0.029275 -5.467686 2.451640 -4.984671 -0.147620 0.302732 -0.214841 0.057316 -0.058580 1.249999 -21.637203 3.179125 5.267404 -25.415255 -41.022221 -10.897676 -46.109154 -14.029454 8.881582 -18.174263 -26.165146 7.240318 -16.671005 -5.949247 -2.241277 36.560371 -43.649879 -13.476998 42.992813 27.178448 -6.930135 9.694216 16.637100 2.564183 -19.649221 12.582820 -2.998113 78.294342 -6.374927 -8.541198 13.597528 7.123875 -4.316319 -72.553749 -0.479045 -5.729468 48.686638 3.402271 3.129578 -26.196949 -2.282594 -4.806844 
-0.487217 38.532612 -0.079362 29.769520 -7.072600 -2.647832 -0.568278 2.353449 0.430127 -5.697061 2.376764 -4.085398 -0.305138 0.371086 -0.371086 0.057545 -0.058584 1.025390 -18.622808 2.897567 5.077202 -31.920301 -37.883640 0.364170 -47.108143 -9.608599 7.869808 -17.547480 -25.941732 7.229318 -18.778791 -7.693858 -3.836158 29.849072 -39.718075 -10.297139 42.056885 32.597542 -6.577562 9.948926 15.795229 2.800812 -30.180567 14.841716 -5.399681 85.447838 -6.503141 -9.851823 11.930517 7.123877 -4.308466 -76.175941 0.048601 -7.352921 66.464760 3.401323 5.074991 -32.839787 -4.852757 -6.665677 
-0.630775 37.952026 0.203020 29.202639 -7.267240 -2.727804 -1.410005 2.968408 0.870503 -5.563025 2.027489 -3.488289 -0.284390 0.302732 -0.224606 -0.020463 -0.078119 0.683593 -14.408894 2.403759 3.941297 -35.163998 -34.185993 6.538660 -49.730198 -8.217218 7.351437 -15.281978 -25.276211 5.573557 -20.091335 -7.492824 -4.858320 28.527010 -34.098419 -9.461287 42.929405 34.906685 -8.058735 9.350433 15.578728 2.428737 -41.149899 16.073559 -8.051105 90.838470 -5.771601 -10.005735 9.510540 4.547457 -4.620288 -72.124649 0.615191 -7.669891 71.670807 3.225539 5.401906 -33.618656 -7.797776 -7.663793 
-0.774323 37.371468 0.485383 28.636305 -7.461841 -2.807807 -2.241816 3.602575 1.311530 -5.426241 1.677564 -2.881911 -0.254198 0.244140 -0.068359 -0.098315 -0.107420 0.351562 -10.211218 1.833779 2.846989 -37.780022 -30.242756 12.188563 -52.338398 -6.805926 6.904574 -13.039907 -24.557283 3.966190 -21.401993 -7.267012 -5.860973 27.366426 -28.471603 -8.807404 43.893288 37.201302 -9.632733 8.757094 15.345475 2.068688 -52.206200 16.785534 -10.914561 96.204514 -5.033904 -10.110830 7.105183 2.013958 -5.050704 -68.082977 1.200607 -7.917594 76.854736 3.039232 5.716668 -34.406872 -10.736749 -8.696901 
-0.862762 38.146301 0.445074 27.993532 -7.325346 -2.796854 -3.849856 4.110222 1.331708 -4.200700 1.288080 -2.236860 -0.655174 0.302733 -0.166013 -0.479205 -0.175780 0.224608 -6.328228 1.517035 1.738163 -35.401466 -25.908329 13.131051 -55.358891 -5.845172 6.473403 -10.754633 -24.094902 2.705990 -20.805765 -4.985103 -6.996412 30.036255 -23.143631 -10.986259 46.285000 37.717514 -11.849784 7.778500 14.618903 1.585106 -58.828220 17.157219 -12.528741 97.628265 -5.109495 -10.360389 3.643119 1.037619 -5.217084 -61.259815 1.542366 -7.119959 76.782532 3.332286 5.941636 -33.918976 -12.443352 -10.689022 
-0.951195 38.921124 0.404761 27.340570 -7.179097 -2.785924 -5.467858 4.627641 1.342983 -2.983791 0.898095 -1.582143 -1.056395 0.371090 -0.263666 -0.859851 -0.253906 0.107421 -2.444823 1.124093 0.663525 -33.009117 -21.617043 14.214076 -58.368862 -4.871360 6.098927 -8.487265 -23.578611 1.481876 -20.166376 -2.708719 -8.158163 32.393307 -17.735170 -12.829832 48.720280 38.159054 -14.105166 6.808408 13.872568 1.116749 -65.470589 17.343187 -14.177135 99.042145 -5.158059 -10.588137 0.183371 0.037506 -5.413228 -54.442104 1.786544 -6.279524 76.700294 3.615416 6.157410 -33.507267 -14.144825 -12.631775 
-1.000383 40.012878 0.252275 26.680277 -6.954981 -2.745933 -6.922310 4.793687 1.304077 -1.941167 0.488223 -0.888640 -1.310163 0.400388 -0.224604 -1.221269 -0.332031 0.097655 1.691511 0.707993 -0.166051 -30.345442 -16.756584 15.222982 -60.468662 -3.602788 5.906366 -6.350860 -22.853910 0.074378 -17.895309 -0.940437 -8.722712 36.112984 -11.321250 -15.459722 51.574554 38.508991 -16.457264 6.139885 13.544114 0.555952 -70.917343 17.382301 -15.009791 99.131042 -5.346946 -10.883465 -2.983490 -0.218793 -5.162849 -47.086411 2.001683 -5.336318 72.452599 3.889616 5.877302 -29.445297 -15.236407 -13.097467 
-1.049562 41.104664 0.099778 26.030756 -6.721037 -2.714493 -8.387600 4.959754 1.255450 -0.898637 0.058593 -0.195312 -1.554083 0.439451 -0.175776 -1.572825 -0.410156 0.078123 5.815135 0.224347 -0.961857 -27.649162 -11.947296 16.438339 -62.559418 -2.315127 5.760071 -4.244683 -22.086565 -1.291555 -15.618826 0.808618 -9.359454 39.466103 -4.765561 -17.621977 54.445881 38.767601 -18.832787 5.475768 13.216197 -0.004529 -76.367020 17.343798 -15.866143 99.208725 -5.521249 -11.197236 -6.146995 -0.505097 -4.913585 -39.726303 2.089171 -4.393986 68.200508 4.133722 5.599222 -25.345940 -16.376410 -13.498068 
-0.988291 42.556210 -0.170445 25.584524 -6.282328 -2.662639 -9.689057 4.110423 1.204381 -0.529178 -0.283197 0.371089 -1.377393 0.322265 -0.078124 -1.709324 -0.332031 0.058593 9.927886 -0.291321 -1.106210 -26.012114 -7.278808 18.072636 -62.339695 -0.809401 5.912048 -2.888294 -21.219801 -1.793261 -10.560187 1.178841 -8.744968 42.858406 1.807015 -20.504345 56.766640 39.171818 -21.158962 5.103824 13.105439 -0.061336 -79.027191 16.894386 -15.681260 98.553406 -5.958832 -10.621718 -12.023649 -0.385231 -3.620988 -32.453793 1.132545 -3.471198 60.425064 4.418599 5.021199 -16.662003 -16.357319 -7.153705 
-0.927011 44.007755 -0.440670 25.128876 -5.833822 -2.611987 -10.987707 3.270799 1.173866 -0.146997 -0.634682 0.927786 -1.201109 0.185547 0.019563 -1.836067 -0.253906 0.029297 14.048332 -0.821165 -1.212595 -24.256208 -2.651236 19.827007 -62.115967 0.686148 6.062325 -1.549876 -20.343576 -2.267732 -5.502670 1.599991 -8.156276 45.946987 8.537341 -23.020836 59.118942 39.493252 -23.522833 4.739884 12.985603 -0.124835 -81.679451 16.474571 -15.484444 97.858177 -6.407892 -10.049887 -17.908409 -0.375758 -2.324965 -25.207680 0.058201 -2.685103 52.650230 4.612863 4.428461 -8.064277 -15.433588 -0.912110 
-0.774923 45.415108 -0.738762 24.904436 -5.239253 -2.481776 -11.849134 1.952800 1.045646 -0.170952 -0.956718 1.464966 -0.888647 0.029297 0.048833 -1.816371 -0.068359 -0.029309 17.372519 -1.264267 -1.043980 -23.567455 2.323174 21.140356 -60.696114 2.093164 6.245524 -0.283653 -19.305166 -2.266145 0.288380 1.302644 -7.023396 47.906898 14.327311 -25.087355 60.278442 39.731796 -24.933153 4.928699 13.481165 -0.248930 -83.236732 16.093523 -14.420889 96.758858 -6.915310 -9.758712 -22.398857 -0.238017 -0.476022 -20.061501 -0.917790 -2.132888 43.892082 4.804178 3.604767 2.114504 -12.420629 2.093931 
